{
	"asset":{
		"generator":"Khronos glTF Blender I/O v4.1.63",
		"version":"2.0"
	},
	"scene":0,
	"scenes":[
		{
			"name":"Scene",
			"nodes":[
				1
			]
		}
	],
	"nodes":[
		{
			"mesh":0,
			"name":"foundation_stilts-colonly"
		},
		{
			"children":[
				0
			],
			"mesh":1,
			"name":"foundation_stilts"
		}
	],
	"materials":[
		{
			"doubleSided":true,
			"name":"Material",
			"pbrMetallicRoughness":{
				"baseColorTexture":{
					"index":0
				},
				"metallicFactor":0,
				"roughnessFactor":0.5
			}
		}
	],
	"meshes":[
		{
			"name":"foundation-stilts.002",
			"primitives":[
				{
					"attributes":{
						"POSITION":0,
						"NORMAL":1,
						"TEXCOORD_0":2
					},
					"indices":3
				}
			]
		},
		{
			"name":"foundation-stilts.001",
			"primitives":[
				{
					"attributes":{
						"POSITION":4,
						"NORMAL":5,
						"TEXCOORD_0":6
					},
					"indices":7,
					"material":0
				}
			]
		}
	],
	"textures":[
		{
			"sampler":0,
			"source":0
		}
	],
	"images":[
		{
			"mimeType":"image/png",
			"name":"1024-px-16-meters-grid",
			"uri":"1024-px-16-meters-grid.png"
		}
	],
	"accessors":[
		{
			"bufferView":0,
			"componentType":5126,
			"count":353,
			"max":[
				2.25,
				0.25,
				2.25
			],
			"min":[
				-2.25,
				-5.25,
				-2.25
			],
			"type":"VEC3"
		},
		{
			"bufferView":1,
			"componentType":5126,
			"count":353,
			"type":"VEC3"
		},
		{
			"bufferView":2,
			"componentType":5126,
			"count":353,
			"type":"VEC2"
		},
		{
			"bufferView":3,
			"componentType":5123,
			"count":792,
			"type":"SCALAR"
		},
		{
			"bufferView":4,
			"componentType":5126,
			"count":272,
			"max":[
				2.25,
				0.25,
				2.25
			],
			"min":[
				-2.25,
				-5.25,
				-2.25
			],
			"type":"VEC3"
		},
		{
			"bufferView":5,
			"componentType":5126,
			"count":272,
			"type":"VEC3"
		},
		{
			"bufferView":6,
			"componentType":5126,
			"count":272,
			"type":"VEC2"
		},
		{
			"bufferView":7,
			"componentType":5123,
			"count":684,
			"type":"SCALAR"
		}
	],
	"bufferViews":[
		{
			"buffer":0,
			"byteLength":4236,
			"byteOffset":0,
			"target":34962
		},
		{
			"buffer":0,
			"byteLength":4236,
			"byteOffset":4236,
			"target":34962
		},
		{
			"buffer":0,
			"byteLength":2824,
			"byteOffset":8472,
			"target":34962
		},
		{
			"buffer":0,
			"byteLength":1584,
			"byteOffset":11296,
			"target":34963
		},
		{
			"buffer":0,
			"byteLength":3264,
			"byteOffset":12880,
			"target":34962
		},
		{
			"buffer":0,
			"byteLength":3264,
			"byteOffset":16144,
			"target":34962
		},
		{
			"buffer":0,
			"byteLength":2176,
			"byteOffset":19408,
			"target":34962
		},
		{
			"buffer":0,
			"byteLength":1368,
			"byteOffset":21584,
			"target":34963
		}
	],
	"samplers":[
		{
			"magFilter":9729,
			"minFilter":9987
		}
	],
	"buffers":[
		{
			"byteLength":22952,
			"uri":"foundation-stilts.bin"
		}
	]
}
