{
	"asset":{
		"generator":"Khronos glTF Blender I/O v4.2.57",
		"version":"2.0"
	},
	"scene":0,
	"scenes":[
		{
			"name":"Scene",
			"nodes":[
				0
			]
		}
	],
	"nodes":[
		{
			"mesh":0,
			"name":"Glock",
			"translation":[
				0.10000002384185791,
				0.0023123500868678093,
				0.10000000149011612
			]
		}
	],
	"materials":[
		{
			"doubleSided":true,
			"name":"DarkGrey",
			"pbrMetallicRoughness":{
				"baseColorFactor":[
					0.06827456504106522,
					0.06827456504106522,
					0.06827456504106522,
					1
				],
				"metallicFactor":0,
				"roughnessFactor":0.5
			}
		},
		{
			"doubleSided":true,
			"name":"LightGrey",
			"pbrMetallicRoughness":{
				"baseColorFactor":[
					0.08561099320650101,
					0.08561099320650101,
					0.08561099320650101,
					1
				],
				"metallicFactor":0,
				"roughnessFactor":0.5
			}
		}
	],
	"meshes":[
		{
			"name":"Glock",
			"primitives":[
				{
					"attributes":{
						"POSITION":0,
						"NORMAL":1,
						"TEXCOORD_0":2
					},
					"indices":3,
					"material":0
				},
				{
					"attributes":{
						"POSITION":4,
						"NORMAL":5,
						"TEXCOORD_0":6
					},
					"indices":7,
					"material":1
				}
			]
		}
	],
	"accessors":[
		{
			"bufferView":0,
			"componentType":5126,
			"count":392,
			"max":[
				0.0816187784075737,
				0.027687659487128258,
				0.07248350977897644
			],
			"min":[
				-0.3081868886947632,
				-0.002312346361577511,
				-0.15378420054912567
			],
			"type":"VEC3"
		},
		{
			"bufferView":1,
			"componentType":5126,
			"count":392,
			"type":"VEC3"
		},
		{
			"bufferView":2,
			"componentType":5126,
			"count":392,
			"type":"VEC2"
		},
		{
			"bufferView":3,
			"componentType":5123,
			"count":852,
			"type":"SCALAR"
		},
		{
			"bufferView":4,
			"componentType":5126,
			"count":238,
			"max":[
				0.0816187784075737,
				0.029324563220143318,
				0.0910012423992157
			],
			"min":[
				-0.3012295067310333,
				-0.001568342442624271,
				-0.14612583816051483
			],
			"type":"VEC3"
		},
		{
			"bufferView":5,
			"componentType":5126,
			"count":238,
			"type":"VEC3"
		},
		{
			"bufferView":6,
			"componentType":5126,
			"count":238,
			"type":"VEC2"
		},
		{
			"bufferView":7,
			"componentType":5123,
			"count":438,
			"type":"SCALAR"
		}
	],
	"bufferViews":[
		{
			"buffer":0,
			"byteLength":4704,
			"byteOffset":0,
			"target":34962
		},
		{
			"buffer":0,
			"byteLength":4704,
			"byteOffset":4704,
			"target":34962
		},
		{
			"buffer":0,
			"byteLength":3136,
			"byteOffset":9408,
			"target":34962
		},
		{
			"buffer":0,
			"byteLength":1704,
			"byteOffset":12544,
			"target":34963
		},
		{
			"buffer":0,
			"byteLength":2856,
			"byteOffset":14248,
			"target":34962
		},
		{
			"buffer":0,
			"byteLength":2856,
			"byteOffset":17104,
			"target":34962
		},
		{
			"buffer":0,
			"byteLength":1904,
			"byteOffset":19960,
			"target":34962
		},
		{
			"buffer":0,
			"byteLength":876,
			"byteOffset":21864,
			"target":34963
		}
	],
	"buffers":[
		{
			"byteLength":22740,
			"uri":"pistol.bin"
		}
	]
}
