<?xml version="1.0" encoding="UTF-8" standalone="no"?>
<!-- Created with Inkscape (http://www.inkscape.org/) -->

<svg
   width="16"
   height="16"
   viewBox="0 0 16 16"
   version="1.1"
   id="svg1"
   inkscape:version="1.3.2 (091e20e, 2023-11-25, custom)"
   sodipodi:docname="info.svg"
   xmlns:inkscape="http://www.inkscape.org/namespaces/inkscape"
   xmlns:sodipodi="http://sodipodi.sourceforge.net/DTD/sodipodi-0.dtd"
   xmlns="http://www.w3.org/2000/svg"
   xmlns:svg="http://www.w3.org/2000/svg">
  <sodipodi:namedview
     id="namedview1"
     pagecolor="#ffffff"
     bordercolor="#666666"
     borderopacity="1.0"
     inkscape:showpageshadow="2"
     inkscape:pageopacity="0.0"
     inkscape:pagecheckerboard="0"
     inkscape:deskcolor="#d1d1d1"
     inkscape:document-units="px"
     inkscape:zoom="15.600544"
     inkscape:cx="8.0125414"
     inkscape:cy="6.0574813"
     inkscape:window-width="1920"
     inkscape:window-height="1094"
     inkscape:window-x="-11"
     inkscape:window-y="-11"
     inkscape:window-maximized="1"
     inkscape:current-layer="layer1"
     showgrid="true">
    <inkscape:grid
       id="grid1"
       units="px"
       originx="0"
       originy="0"
       spacingx="1"
       spacingy="1"
       empcolor="#0099e5"
       empopacity="0.30196078"
       color="#0099e5"
       opacity="0.14901961"
       empspacing="5"
       dotted="false"
       gridanglex="30"
       gridanglez="30"
       visible="true" />
  </sodipodi:namedview>
  <defs
     id="defs1" />
  <g
     inkscape:label="Layer 1"
     inkscape:groupmode="layer"
     id="layer1">
    <g
       class=""
       style="fill:#00aad4"
       id="g2"
       transform="matrix(0.03000592,0,0,0.03000592,0.37596705,0.18384049)">
      <path
         d="M 256,21 C 126.426,21 21,126.426 21,256 21,385.574 126.426,491 256,491 385.574,491 491,385.574 491,256 491,126.426 385.574,21 256,21 Z m 0,36 c 110.118,0 199,88.882 199,199 0,110.118 -88.882,199 -199,199 C 145.882,455 57,366.118 57,256 57,145.882 145.882,57 256,57 Z m -7.352,36.744 c -8.227,0 -15.317,2.976 -21.27,8.928 -5.776,5.952 -8.665,12.955 -8.665,21.008 0,8.227 2.89,15.23 8.666,21.006 5.95,5.776 13.04,8.666 21.268,8.666 8.228,0 15.23,-2.89 21.006,-8.666 5.777,-5.777 8.666,-12.78 8.666,-21.006 0,-8.053 -2.976,-15.056 -8.927,-21.008 -5.777,-5.952 -12.692,-8.928 -20.745,-8.928 z m -62.757,82.453 v 28.096 h 46.215 v 186.13 H 185.89 v 27.833 H 326.11 V 390.422 H 280.42 V 176.197 h -94.53 z"
         fill="#fff"
         fill-opacity="1"
         id="path2"
         style="fill:#00aad4" />
    </g>
  </g>
</svg>
