{
	"asset":{
		"generator":"Khronos glTF Blender I/O v4.2.57",
		"version":"2.0"
	},
	"scene":0,
	"scenes":[
		{
			"name":"Scene",
			"nodes":[
				0
			]
		}
	],
	"nodes":[
		{
			"mesh":0,
			"name":"Fingerless_Glove_Left"
		}
	],
	"materials":[
		{
			"doubleSided":true,
			"name":"Bowman",
			"pbrMetallicRoughness":{
				"baseColorTexture":{
					"index":0
				},
				"metallicFactor":0,
				"roughnessFactor":0.5
			}
		}
	],
	"meshes":[
		{
			"name":"Fingerless_Glove_Left",
			"primitives":[
				{
					"attributes":{
						"POSITION":0,
						"NORMAL":1,
						"TEXCOORD_0":2
					},
					"indices":3,
					"material":0
				}
			]
		}
	],
	"textures":[
		{
			"sampler":0,
			"source":0
		}
	],
	"images":[
		{
			"mimeType":"image/png",
			"name":"Bowman",
			"uri":"Bowman.png"
		}
	],
	"accessors":[
		{
			"bufferView":0,
			"componentType":5126,
			"count":121,
			"max":[
				0.7675173878669739,
				1.3409829139709473,
				0.1234046146273613
			],
			"min":[
				0.5640090107917786,
				1.0986932516098022,
				-0.12409620732069016
			],
			"type":"VEC3"
		},
		{
			"bufferView":1,
			"componentType":5126,
			"count":121,
			"type":"VEC3"
		},
		{
			"bufferView":2,
			"componentType":5126,
			"count":121,
			"type":"VEC2"
		},
		{
			"bufferView":3,
			"componentType":5123,
			"count":546,
			"type":"SCALAR"
		}
	],
	"bufferViews":[
		{
			"buffer":0,
			"byteLength":1452,
			"byteOffset":0,
			"target":34962
		},
		{
			"buffer":0,
			"byteLength":1452,
			"byteOffset":1452,
			"target":34962
		},
		{
			"buffer":0,
			"byteLength":968,
			"byteOffset":2904,
			"target":34962
		},
		{
			"buffer":0,
			"byteLength":1092,
			"byteOffset":3872,
			"target":34963
		}
	],
	"samplers":[
		{
			"magFilter":9729,
			"minFilter":9987
		}
	],
	"buffers":[
		{
			"byteLength":4964,
			"uri":"fingerless_glove_left.bin"
		}
	]
}
