{
	"asset":{
		"generator":"Khronos glTF Blender I/O v4.2.57",
		"version":"2.0"
	},
	"scene":0,
	"scenes":[
		{
			"name":"Scene",
			"nodes":[
				0
			]
		}
	],
	"nodes":[
		{
			"mesh":0,
			"name":"Spear",
			"translation":[
				-0.313120037317276,
				0.019625430926680565,
				0.003450780874118209
			]
		}
	],
	"materials":[
		{
			"doubleSided":true,
			"name":"Wood",
			"pbrMetallicRoughness":{
				"baseColorFactor":[
					0.10527871549129486,
					0.07536163926124573,
					0.05779904127120972,
					1
				],
				"metallicFactor":0,
				"roughnessFactor":0.5
			}
		},
		{
			"doubleSided":true,
			"name":"LightGrey",
			"pbrMetallicRoughness":{
				"baseColorFactor":[
					0.08561099320650101,
					0.08561099320650101,
					0.08561099320650101,
					1
				],
				"metallicFactor":0,
				"roughnessFactor":0.5
			}
		}
	],
	"meshes":[
		{
			"name":"Spear",
			"primitives":[
				{
					"attributes":{
						"POSITION":0,
						"NORMAL":1,
						"TEXCOORD_0":2
					},
					"indices":3,
					"material":0
				},
				{
					"attributes":{
						"POSITION":4,
						"NORMAL":5,
						"TEXCOORD_0":6
					},
					"indices":7,
					"material":1
				}
			]
		}
	],
	"accessors":[
		{
			"bufferView":0,
			"componentType":5126,
			"count":72,
			"max":[
				1.0499998331069946,
				0.037465840578079224,
				0.05950380861759186
			],
			"min":[
				-0.44999995827674866,
				-0.02213500812649727,
				-0.03054209239780903
			],
			"type":"VEC3"
		},
		{
			"bufferView":1,
			"componentType":5126,
			"count":72,
			"type":"VEC3"
		},
		{
			"bufferView":2,
			"componentType":5126,
			"count":72,
			"type":"VEC2"
		},
		{
			"bufferView":3,
			"componentType":5123,
			"count":156,
			"type":"SCALAR"
		},
		{
			"bufferView":4,
			"componentType":5126,
			"count":40,
			"max":[
				1.2205697298049927,
				0.037351325154304504,
				0.028541982173919678
			],
			"min":[
				0.9460301995277405,
				-0.01660230942070484,
				-0.02541165240108967
			],
			"type":"VEC3"
		},
		{
			"bufferView":5,
			"componentType":5126,
			"count":40,
			"type":"VEC3"
		},
		{
			"bufferView":6,
			"componentType":5126,
			"count":40,
			"type":"VEC2"
		},
		{
			"bufferView":7,
			"componentType":5123,
			"count":84,
			"type":"SCALAR"
		}
	],
	"bufferViews":[
		{
			"buffer":0,
			"byteLength":864,
			"byteOffset":0,
			"target":34962
		},
		{
			"buffer":0,
			"byteLength":864,
			"byteOffset":864,
			"target":34962
		},
		{
			"buffer":0,
			"byteLength":576,
			"byteOffset":1728,
			"target":34962
		},
		{
			"buffer":0,
			"byteLength":312,
			"byteOffset":2304,
			"target":34963
		},
		{
			"buffer":0,
			"byteLength":480,
			"byteOffset":2616,
			"target":34962
		},
		{
			"buffer":0,
			"byteLength":480,
			"byteOffset":3096,
			"target":34962
		},
		{
			"buffer":0,
			"byteLength":320,
			"byteOffset":3576,
			"target":34962
		},
		{
			"buffer":0,
			"byteLength":168,
			"byteOffset":3896,
			"target":34963
		}
	],
	"buffers":[
		{
			"byteLength":4064,
			"uri":"spear.bin"
		}
	]
}
