{
	"asset":{
		"generator":"Khronos glTF Blender I/O v4.2.57",
		"version":"2.0"
	},
	"scene":0,
	"scenes":[
		{
			"name":"Scene",
			"nodes":[
				0
			]
		}
	],
	"nodes":[
		{
			"mesh":0,
			"name":"Baseball_Bat",
			"rotation":[
				0.7071068286895752,
				0,
				0,
				0.7071068286895752
			]
		}
	],
	"materials":[
		{
			"doubleSided":true,
			"name":"Bat_Wood",
			"pbrMetallicRoughness":{
				"baseColorFactor":[
					0.3080351948738098,
					0.21600671112537384,
					0.16274607181549072,
					1
				],
				"metallicFactor":0,
				"roughnessFactor":0.5
			}
		},
		{
			"doubleSided":true,
			"name":"Handle",
			"pbrMetallicRoughness":{
				"baseColorFactor":[
					0.08560702949762344,
					0.06155688315629959,
					0.04743403196334839,
					1
				],
				"metallicFactor":0,
				"roughnessFactor":0.5
			}
		}
	],
	"meshes":[
		{
			"name":"Baseball_Bat",
			"primitives":[
				{
					"attributes":{
						"POSITION":0,
						"NORMAL":1,
						"TEXCOORD_0":2
					},
					"indices":3,
					"material":0
				},
				{
					"attributes":{
						"POSITION":4,
						"NORMAL":5,
						"TEXCOORD_0":6
					},
					"indices":7,
					"material":1
				}
			]
		}
	],
	"accessors":[
		{
			"bufferView":0,
			"componentType":5126,
			"count":90,
			"max":[
				0.06328178942203522,
				0.5377386808395386,
				0.023281820118427277
			],
			"min":[
				-0.06328178942203522,
				-0.6648054122924805,
				-0.10328175872564316
			],
			"type":"VEC3"
		},
		{
			"bufferView":1,
			"componentType":5126,
			"count":90,
			"type":"VEC3"
		},
		{
			"bufferView":2,
			"componentType":5126,
			"count":90,
			"type":"VEC2"
		},
		{
			"bufferView":3,
			"componentType":5123,
			"count":480,
			"type":"SCALAR"
		},
		{
			"bufferView":4,
			"componentType":5126,
			"count":48,
			"max":[
				0.03550645336508751,
				-0.34306252002716064,
				-0.00449351966381073
			],
			"min":[
				-0.03550645336508751,
				-0.6075205206871033,
				-0.07550642639398575
			],
			"type":"VEC3"
		},
		{
			"bufferView":5,
			"componentType":5126,
			"count":48,
			"type":"VEC3"
		},
		{
			"bufferView":6,
			"componentType":5126,
			"count":48,
			"type":"VEC2"
		},
		{
			"bufferView":7,
			"componentType":5123,
			"count":240,
			"type":"SCALAR"
		}
	],
	"bufferViews":[
		{
			"buffer":0,
			"byteLength":1080,
			"byteOffset":0,
			"target":34962
		},
		{
			"buffer":0,
			"byteLength":1080,
			"byteOffset":1080,
			"target":34962
		},
		{
			"buffer":0,
			"byteLength":720,
			"byteOffset":2160,
			"target":34962
		},
		{
			"buffer":0,
			"byteLength":960,
			"byteOffset":2880,
			"target":34963
		},
		{
			"buffer":0,
			"byteLength":576,
			"byteOffset":3840,
			"target":34962
		},
		{
			"buffer":0,
			"byteLength":576,
			"byteOffset":4416,
			"target":34962
		},
		{
			"buffer":0,
			"byteLength":384,
			"byteOffset":4992,
			"target":34962
		},
		{
			"buffer":0,
			"byteLength":480,
			"byteOffset":5376,
			"target":34963
		}
	],
	"buffers":[
		{
			"byteLength":5856,
			"uri":"baseball_bat.bin"
		}
	]
}
