{
	"asset":{
		"generator":"Khronos glTF Blender I/O v4.2.57",
		"version":"2.0"
	},
	"scene":0,
	"scenes":[
		{
			"name":"Scene",
			"nodes":[
				0
			]
		}
	],
	"nodes":[
		{
			"mesh":0,
			"name":"Rifle",
			"translation":[
				0.2020629197359085,
				0.007967362180352211,
				0.14686135947704315
			]
		}
	],
	"materials":[
		{
			"doubleSided":true,
			"name":"DarkGrey",
			"pbrMetallicRoughness":{
				"baseColorFactor":[
					0.06827456504106522,
					0.06827456504106522,
					0.06827456504106522,
					1
				],
				"metallicFactor":0,
				"roughnessFactor":0.5
			}
		},
		{
			"doubleSided":true,
			"name":"LightGrey",
			"pbrMetallicRoughness":{
				"baseColorFactor":[
					0.08561099320650101,
					0.08561099320650101,
					0.08561099320650101,
					1
				],
				"metallicFactor":0,
				"roughnessFactor":0.5
			}
		},
		{
			"doubleSided":true,
			"name":"Wood",
			"pbrMetallicRoughness":{
				"baseColorFactor":[
					0.10527871549129486,
					0.07536163926124573,
					0.05779904127120972,
					1
				],
				"metallicFactor":0,
				"roughnessFactor":0.5
			}
		}
	],
	"meshes":[
		{
			"name":"Rifle",
			"primitives":[
				{
					"attributes":{
						"POSITION":0,
						"NORMAL":1,
						"TEXCOORD_0":2
					},
					"indices":3,
					"material":0
				},
				{
					"attributes":{
						"POSITION":4,
						"NORMAL":5,
						"TEXCOORD_0":6
					},
					"indices":7,
					"material":1
				},
				{
					"attributes":{
						"POSITION":8,
						"NORMAL":9,
						"TEXCOORD_0":10
					},
					"indices":11,
					"material":2
				}
			]
		}
	],
	"accessors":[
		{
			"bufferView":0,
			"componentType":5126,
			"count":951,
			"max":[
				0.09928818792104721,
				0.05055776238441467,
				0.12009451538324356
			],
			"min":[
				-0.821401834487915,
				-0.009970520623028278,
				-0.22918355464935303
			],
			"type":"VEC3"
		},
		{
			"bufferView":1,
			"componentType":5126,
			"count":951,
			"type":"VEC3"
		},
		{
			"bufferView":2,
			"componentType":5126,
			"count":951,
			"type":"VEC2"
		},
		{
			"bufferView":3,
			"componentType":5123,
			"count":1956,
			"type":"SCALAR"
		},
		{
			"bufferView":4,
			"componentType":5126,
			"count":581,
			"max":[
				0.14639809727668762,
				0.0549810454249382,
				-0.016150686889886856
			],
			"min":[
				-0.841154932975769,
				-0.007970516569912434,
				-0.19501614570617676
			],
			"type":"VEC3"
		},
		{
			"bufferView":5,
			"componentType":5126,
			"count":581,
			"type":"VEC3"
		},
		{
			"bufferView":6,
			"componentType":5126,
			"count":581,
			"type":"VEC2"
		},
		{
			"bufferView":7,
			"componentType":5123,
			"count":1362,
			"type":"SCALAR"
		},
		{
			"bufferView":8,
			"componentType":5126,
			"count":246,
			"max":[
				0.39203616976737976,
				0.04633253812789917,
				0.06160295754671097
			],
			"min":[
				-0.31420591473579407,
				-8.317729616180713e-09,
				-0.16348478198051453
			],
			"type":"VEC3"
		},
		{
			"bufferView":9,
			"componentType":5126,
			"count":246,
			"type":"VEC3"
		},
		{
			"bufferView":10,
			"componentType":5126,
			"count":246,
			"type":"VEC2"
		},
		{
			"bufferView":11,
			"componentType":5123,
			"count":558,
			"type":"SCALAR"
		}
	],
	"bufferViews":[
		{
			"buffer":0,
			"byteLength":11412,
			"byteOffset":0,
			"target":34962
		},
		{
			"buffer":0,
			"byteLength":11412,
			"byteOffset":11412,
			"target":34962
		},
		{
			"buffer":0,
			"byteLength":7608,
			"byteOffset":22824,
			"target":34962
		},
		{
			"buffer":0,
			"byteLength":3912,
			"byteOffset":30432,
			"target":34963
		},
		{
			"buffer":0,
			"byteLength":6972,
			"byteOffset":34344,
			"target":34962
		},
		{
			"buffer":0,
			"byteLength":6972,
			"byteOffset":41316,
			"target":34962
		},
		{
			"buffer":0,
			"byteLength":4648,
			"byteOffset":48288,
			"target":34962
		},
		{
			"buffer":0,
			"byteLength":2724,
			"byteOffset":52936,
			"target":34963
		},
		{
			"buffer":0,
			"byteLength":2952,
			"byteOffset":55660,
			"target":34962
		},
		{
			"buffer":0,
			"byteLength":2952,
			"byteOffset":58612,
			"target":34962
		},
		{
			"buffer":0,
			"byteLength":1968,
			"byteOffset":61564,
			"target":34962
		},
		{
			"buffer":0,
			"byteLength":1116,
			"byteOffset":63532,
			"target":34963
		}
	],
	"buffers":[
		{
			"byteLength":64648,
			"uri":"rifle.bin"
		}
	]
}
