{
	"asset":{
		"generator":"Khronos glTF Blender I/O v4.2.57",
		"version":"2.0"
	},
	"scene":0,
	"scenes":[
		{
			"name":"Scene",
			"nodes":[
				0
			]
		}
	],
	"nodes":[
		{
			"mesh":0,
			"name":"CombatKnife",
			"rotation":[
				0,
				-0.7071068286895752,
				0,
				0.7071068286895752
			]
		}
	],
	"materials":[
		{
			"doubleSided":true,
			"name":"Bat_Wood",
			"pbrMetallicRoughness":{
				"baseColorFactor":[
					0.3080351948738098,
					0.21600671112537384,
					0.16274607181549072,
					1
				],
				"metallicFactor":0,
				"roughnessFactor":0.5
			}
		},
		{
			"doubleSided":true,
			"name":"LightGrey",
			"pbrMetallicRoughness":{
				"baseColorFactor":[
					0.08561099320650101,
					0.08561099320650101,
					0.08561099320650101,
					1
				],
				"metallicFactor":0,
				"roughnessFactor":0.5
			}
		},
		{
			"doubleSided":true,
			"name":"DarkGrey",
			"pbrMetallicRoughness":{
				"baseColorFactor":[
					0.06827456504106522,
					0.06827456504106522,
					0.06827456504106522,
					1
				],
				"metallicFactor":0,
				"roughnessFactor":0.5
			}
		}
	],
	"meshes":[
		{
			"name":"CombatKnife",
			"primitives":[
				{
					"attributes":{
						"POSITION":0,
						"NORMAL":1,
						"TEXCOORD_0":2
					},
					"indices":3,
					"material":0
				},
				{
					"attributes":{
						"POSITION":4,
						"NORMAL":5,
						"TEXCOORD_0":6
					},
					"indices":7,
					"material":1
				},
				{
					"attributes":{
						"POSITION":8,
						"NORMAL":9,
						"TEXCOORD_0":10
					},
					"indices":11,
					"material":2
				}
			]
		}
	],
	"accessors":[
		{
			"bufferView":0,
			"componentType":5126,
			"count":216,
			"max":[
				0.09871223568916321,
				0.012500000186264515,
				0.028248174116015434
			],
			"min":[
				-0.10731878876686096,
				-0.01249999925494194,
				-0.03640487417578697
			],
			"type":"VEC3"
		},
		{
			"bufferView":1,
			"componentType":5126,
			"count":216,
			"type":"VEC3"
		},
		{
			"bufferView":2,
			"componentType":5126,
			"count":216,
			"type":"VEC2"
		},
		{
			"bufferView":3,
			"componentType":5123,
			"count":468,
			"type":"SCALAR"
		},
		{
			"bufferView":4,
			"componentType":5126,
			"count":104,
			"max":[
				0.3860050439834595,
				0.005331503693014383,
				0.024932175874710083
			],
			"min":[
				-0.0999656543135643,
				-0.005331503693014383,
				-0.03531384468078613
			],
			"type":"VEC3"
		},
		{
			"bufferView":5,
			"componentType":5126,
			"count":104,
			"type":"VEC3"
		},
		{
			"bufferView":6,
			"componentType":5126,
			"count":104,
			"type":"VEC2"
		},
		{
			"bufferView":7,
			"componentType":5123,
			"count":192,
			"type":"SCALAR"
		},
		{
			"bufferView":8,
			"componentType":5126,
			"count":172,
			"max":[
				0.38944387435913086,
				0.002483379328623414,
				0.029878754168748856
			],
			"min":[
				0.06909391283988953,
				-0.004476756788790226,
				-0.04368513450026512
			],
			"type":"VEC3"
		},
		{
			"bufferView":9,
			"componentType":5126,
			"count":172,
			"type":"VEC3"
		},
		{
			"bufferView":10,
			"componentType":5126,
			"count":172,
			"type":"VEC2"
		},
		{
			"bufferView":11,
			"componentType":5123,
			"count":342,
			"type":"SCALAR"
		}
	],
	"bufferViews":[
		{
			"buffer":0,
			"byteLength":2592,
			"byteOffset":0,
			"target":34962
		},
		{
			"buffer":0,
			"byteLength":2592,
			"byteOffset":2592,
			"target":34962
		},
		{
			"buffer":0,
			"byteLength":1728,
			"byteOffset":5184,
			"target":34962
		},
		{
			"buffer":0,
			"byteLength":936,
			"byteOffset":6912,
			"target":34963
		},
		{
			"buffer":0,
			"byteLength":1248,
			"byteOffset":7848,
			"target":34962
		},
		{
			"buffer":0,
			"byteLength":1248,
			"byteOffset":9096,
			"target":34962
		},
		{
			"buffer":0,
			"byteLength":832,
			"byteOffset":10344,
			"target":34962
		},
		{
			"buffer":0,
			"byteLength":384,
			"byteOffset":11176,
			"target":34963
		},
		{
			"buffer":0,
			"byteLength":2064,
			"byteOffset":11560,
			"target":34962
		},
		{
			"buffer":0,
			"byteLength":2064,
			"byteOffset":13624,
			"target":34962
		},
		{
			"buffer":0,
			"byteLength":1376,
			"byteOffset":15688,
			"target":34962
		},
		{
			"buffer":0,
			"byteLength":684,
			"byteOffset":17064,
			"target":34963
		}
	],
	"buffers":[
		{
			"byteLength":17748,
			"uri":"combat_knife.bin"
		}
	]
}
