<?xml version="1.0" encoding="UTF-8" standalone="no"?>
<svg
   height="128"
   width="128"
   version="1.1"
   id="svg7"
   sodipodi:docname="icon.svg"
   inkscape:version="1.3.2 (091e20e, 2023-11-25, custom)"
   xmlns:inkscape="http://www.inkscape.org/namespaces/inkscape"
   xmlns:sodipodi="http://sodipodi.sourceforge.net/DTD/sodipodi-0.dtd"
   xmlns="http://www.w3.org/2000/svg"
   xmlns:svg="http://www.w3.org/2000/svg">
  <defs
     id="defs7" />
  <sodipodi:namedview
     id="namedview7"
     pagecolor="#ffffff"
     bordercolor="#666666"
     borderopacity="1.0"
     inkscape:showpageshadow="2"
     inkscape:pageopacity="0.0"
     inkscape:pagecheckerboard="0"
     inkscape:deskcolor="#d1d1d1"
     inkscape:zoom="1.9500679"
     inkscape:cx="64.356733"
     inkscape:cy="57.177496"
     inkscape:window-width="1920"
     inkscape:window-height="991"
     inkscape:window-x="-9"
     inkscape:window-y="-9"
     inkscape:window-maximized="1"
     inkscape:current-layer="svg7" />
  <path
     d="M 7.0664004e-8,9.5279503e-8 H 128 V 128 H 7.0664004e-8 Z"
     fill="#000000"
     fill-opacity="1"
     id="path1-2"
     style="fill:#363d52;fill-opacity:1;stroke-width:1" />
  <g
     class=""
     id="g2"
     transform="scale(0.24999999)"
     style="fill:#478cbf;fill-opacity:1;stroke-width:4">
    <path
       d="m 265.344,17.5 -4.188,25.313 c -17.994,-0.1 -35.62,2.066 -52.562,6.28 l -9.438,-25.062 -55.125,20.75 9.907,26.282 c -15.008,8.587 -28.96,18.95 -41.5,30.876 L 90,83.53 52.625,129.03 75.75,148 c -8.54,14.428 -15.47,30.036 -20.5,46.594 L 25.187,189.624 15.594,247.719 46,252.75 c -0.374,17.218 1.313,34.127 4.906,50.438 L 22,314.063 42.75,369.188 71.375,358.406 c 8.07,15.027 17.91,29.046 29.28,41.75 l -18.967,23.094 45.532,37.344 18.343,-22.344 c 14.386,9.118 30.04,16.577 46.687,22.125 l -4.53,27.5 58.093,9.594 4.343,-26.283 c 18.046,0.874 35.764,-0.54 52.875,-4.03 l 8.97,23.78 55.094,-20.75 -8.53,-22.656 c 16.126,-8.343 31.134,-18.683 44.655,-30.78 l 17.936,14.72 37.344,-45.533 -17.188,-14.093 c 9.733,-15.35 17.606,-32.125 23.25,-50.03 l 21.407,3.53 9.56,-58.094 -21.06,-3.47 c 0.608,-18.84 -1.282,-37.305 -5.408,-55.06 l 19.844,-7.47 -20.75,-55.125 -20.187,7.594 c -8.89,-16.114 -19.817,-31.033 -32.5,-44.376 l 14.155,-17.25 -45.5,-37.375 -14.72,17.936 c -15.396,-9.116 -32.13,-16.37 -49.936,-21.47 l 3.967,-24.092 -58.093,-9.594 z m -8.03,47.938 C 268.45,65.288 279.751,66.123 291.124,68 395.113,85.164 465.665,183.606 448.5,287.594 431.336,391.58 332.894,462.134 228.906,444.97 124.92,427.803 54.366,329.36 71.53,225.374 86.55,134.384 163.822,68.988 252.562,65.561 c 1.585,-0.06 3.16,-0.103 4.75,-0.124 z m 0.217,18.687 c -1.437,0.018 -2.88,0.04 -4.31,0.094 -80.154,3.037 -149.672,61.917 -163.25,144.186 -15.52,94.022 47.977,182.606 142,198.125 94.02,15.52 182.573,-47.977 198.093,-142 15.52,-94.02 -47.947,-182.573 -141.97,-198.092 -10.283,-1.698 -20.496,-2.44 -30.562,-2.313 z m 0.408,18.156 c 9,-0.116 18.145,0.546 27.343,2.064 84.096,13.88 140.85,93.092 126.97,177.187 -13.88,84.096 -93.06,140.85 -177.156,126.97 -25.808,-4.26 -49.03,-14.68 -68.438,-29.5 l 109.688,-133.625 52.844,43.375 58.437,-71.188 -108.22,-88.78 -101.842,35.53 71,58.25 -107.785,131.374 c -26.985,-33.066 -40.165,-77.126 -32.655,-122.625 12.146,-73.583 74.283,-126.223 145.97,-128.937 1.28,-0.048 2.557,-0.077 3.843,-0.094 z"
       fill="#ffffff"
       fill-opacity="1"
       id="path2-7"
       style="fill:#478cbf;fill-opacity:1;stroke-width:4" />
  </g>
</svg>
